<svg xmlns="http://www.w3.org/2000/svg" width="585" height="639" viewBox="0 0 585 639">
<g>

<path d="M 126.79 523.60 C160.42,546.46 172.45,554.45 173.49,554.61 C178.09,555.33 183.16,557.42 185.46,559.55 C188.68,562.54 191.37,562.41 191.82,559.24 C192.02,557.80 192.83,557.00 194.07,557.00 C195.13,557.00 196.00,556.39 196.00,555.65 C196.00,554.92 196.90,553.50 198.00,552.50 C199.10,551.50 200.00,549.67 200.00,548.43 C200.00,546.90 201.18,545.43 203.61,543.93 C206.75,541.99 210.19,536.74 210.46,533.50 C210.51,532.95 211.30,532.63 212.22,532.78 C214.17,533.11 215.47,530.95 216.38,525.91 C217.03,522.32 219.93,518.85 223.27,517.67 C225.10,517.03 225.41,516.45 226.44,511.75 C226.85,509.86 227.67,509.00 229.04,509.00 C230.26,509.00 231.42,508.02 232.00,506.49 C232.53,505.11 233.31,504.10 233.75,504.24 C236.27,505.06 244.07,493.56 250.36,479.75 C253.18,473.56 254.32,472.00 256.05,472.00 C257.53,472.00 258.04,471.54 257.66,470.55 C257.33,469.68 257.86,468.86 258.99,468.50 C260.13,468.14 261.51,465.97 262.52,462.95 C263.44,460.17 264.77,458.00 265.55,458.00 C266.32,458.00 267.64,456.66 268.48,455.03 C269.33,453.40 270.94,451.57 272.07,450.96 C274.66,449.58 276.04,446.02 274.86,443.77 C274.20,442.51 274.67,440.94 276.61,438.02 C278.07,435.81 279.66,434.00 280.13,434.00 C280.61,434.00 281.00,433.28 281.00,432.41 C281.00,431.53 281.87,430.58 282.94,430.31 C284.00,430.03 285.33,428.49 285.89,426.90 C286.44,425.30 287.32,424.00 287.83,424.00 C288.35,424.00 288.97,422.65 289.21,421.00 C289.74,417.38 288.72,417.23 282.19,419.95 C279.61,421.03 274.80,422.65 271.50,423.56 C268.20,424.48 264.15,425.80 262.50,426.51 C256.17,429.22 241.32,434.88 237.50,436.03 C235.30,436.69 232.15,437.80 230.50,438.50 C224.09,441.19 217.86,443.19 217.37,442.71 C217.10,442.43 219.26,441.45 222.19,440.52 C225.11,439.60 228.85,438.24 230.50,437.50 C232.15,436.76 237.55,434.71 242.50,432.95 C247.45,431.19 251.93,429.35 252.45,428.87 C252.97,428.39 254.03,428.00 254.80,428.00 C255.57,428.00 257.62,427.38 259.35,426.62 C261.08,425.86 264.08,424.65 266.00,423.94 C275.73,420.34 309.60,403.68 318.50,398.12 C325.84,393.53 334.09,389.82 335.64,390.42 C337.45,391.11 337.36,392.78 335.42,394.72 C334.55,395.59 334.05,397.08 334.30,398.04 C334.60,399.18 333.93,400.17 332.38,400.87 C331.07,401.47 330.00,402.58 330.00,403.34 C330.00,404.10 328.66,407.37 327.01,410.61 C325.37,413.85 324.02,417.26 324.01,418.19 C324.01,419.12 323.20,420.47 322.21,421.19 C321.23,421.91 319.80,424.44 319.03,426.82 C318.26,429.20 316.89,431.67 315.97,432.32 C313.78,433.88 311.75,437.79 312.51,439.01 C312.84,439.54 312.41,441.56 311.55,443.49 C310.70,445.42 309.32,448.54 308.49,450.42 C307.66,452.30 306.69,455.34 306.33,457.17 C305.45,461.64 301.55,467.69 299.04,468.49 C297.92,468.84 297.00,469.49 297.00,469.93 C297.00,470.36 295.84,472.43 294.42,474.52 C292.94,476.70 292.06,479.13 292.35,480.23 C292.65,481.37 292.08,482.81 290.93,483.80 C289.87,484.70 289.00,485.95 289.00,486.57 C289.00,487.18 288.10,488.50 287.00,489.50 C285.90,490.50 285.00,492.11 285.00,493.10 C285.00,494.08 284.51,495.18 283.91,495.55 C281.89,496.80 271.00,512.16 271.00,513.76 C271.00,514.63 270.36,516.05 269.57,516.92 C268.79,517.79 266.34,521.88 264.14,526.00 C261.72,530.53 259.41,533.62 258.32,533.80 C256.70,534.06 250.03,542.81 249.98,544.74 C249.97,545.16 249.08,546.62 248.00,548.00 C246.92,549.38 246.03,551.55 246.02,552.84 C246.01,554.33 245.27,555.38 244.00,555.71 C242.08,556.21 241.83,556.66 241.60,560.00 C241.55,560.83 240.60,563.40 239.50,565.71 C238.00,568.87 237.06,569.79 235.74,569.39 C234.40,568.99 233.83,569.59 233.36,571.93 C232.90,574.24 232.21,575.00 230.54,575.00 C227.39,575.00 226.78,576.02 228.44,578.54 C230.33,581.43 229.40,584.68 226.49,585.41 C223.60,586.14 216.44,583.15 209.04,578.14 C201.46,573.00 201.00,572.75 201.00,573.82 C201.00,574.19 205.20,577.24 211.08,581.32 C203.24,576.01 194.80,570.24 186.50,564.48 C171.11,553.82 160.20,546.33 126.79,523.60 ZM 117.16 110.04 C116.36,110.89 116.15,111.52 116.75,111.73 C117.44,111.97 118.00,112.79 118.00,113.55 C118.00,114.31 117.40,114.71 116.66,114.42 C115.92,114.14 114.74,114.60 114.04,115.45 C113.33,116.30 112.08,117.00 111.26,117.00 C109.31,117.00 101.55,122.76 96.55,127.92 C94.37,130.17 91.85,132.00 90.93,132.00 C90.02,132.00 88.13,132.90 86.73,134.00 C85.33,135.10 83.84,136.00 83.42,136.00 C81.50,136.00 70.94,144.07 65.42,149.75 C60.75,154.56 58.67,156.01 56.42,156.04 C51.72,156.09 48.23,159.72 47.60,165.21 C47.06,169.84 48.41,172.70 49.63,169.52 C50.06,168.41 51.22,168.00 53.34,168.20 C55.93,168.45 56.67,168.01 57.87,165.50 C59.38,162.36 60.82,160.99 62.50,161.09 C63.05,161.13 62.89,161.40 62.14,161.70 C60.99,162.16 60.99,162.38 62.14,163.11 C63.20,163.78 63.12,163.97 61.75,163.98 C59.98,164.00 59.45,165.12 60.66,166.33 C61.02,166.69 61.95,166.09 62.72,164.99 C64.78,162.04 67.43,162.56 70.43,166.50 C73.49,170.51 75.16,170.84 78.04,167.96 C79.62,166.38 80.83,166.07 83.42,166.55 C85.43,166.93 87.04,166.74 87.44,166.09 C87.81,165.49 89.44,165.00 91.06,165.00 C93.07,165.00 94.00,164.50 94.00,163.42 C94.00,162.16 94.66,161.98 97.25,162.53 C99.04,162.91 101.21,163.85 102.08,164.61 C104.11,166.40 104.78,166.36 106.79,164.35 C108.32,162.82 108.52,162.91 109.62,165.61 C110.28,167.21 111.71,169.33 112.81,170.33 C114.62,171.96 114.91,171.99 115.71,170.56 C116.80,168.61 123.00,169.49 123.00,171.59 C123.00,173.20 126.01,174.91 127.75,174.28 C128.44,174.04 129.00,172.94 129.00,171.86 C129.00,170.77 128.56,170.16 128.01,170.49 C127.44,170.85 127.28,170.43 127.63,169.51 C127.97,168.63 128.71,168.07 129.28,168.26 C130.36,168.62 134.11,180.57 136.07,189.91 C136.70,192.89 137.97,197.16 138.90,199.41 C139.97,202.01 140.37,204.78 140.00,207.00 C139.67,208.93 139.84,211.81 140.36,213.40 C141.62,217.30 139.16,219.21 133.96,218.38 C131.68,218.01 129.98,218.22 129.56,218.91 C129.07,219.69 127.99,219.41 126.03,218.02 C122.46,215.48 119.30,215.45 117.16,217.93 C115.70,219.63 114.90,219.74 110.50,218.90 C107.75,218.37 101.70,217.94 97.06,217.94 C92.42,217.93 88.07,217.47 87.39,216.91 C85.83,215.61 79.23,216.78 78.24,218.52 C75.40,223.50 68.12,217.13 56.55,199.53 C42.76,178.55 38.00,170.79 38.00,169.32 C38.00,167.54 37.26,167.55 36.28,168.89 C36.45,168.57 36.62,168.27 36.79,168.00 C39.87,163.01 39.77,163.08 97.50,123.95 C106.30,117.98 115.00,111.84 116.84,110.30 C116.94,110.22 117.05,110.13 117.16,110.04 ZM 33.63 175.51 C32.56,182.42 32.50,204.40 32.50,314.00 L 32.50 450.50 L 32.23 317.11 C32.04,228.18 32.30,181.85 32.99,178.11 C33.13,177.32 33.35,176.43 33.63,175.51 ZM 125.95 151.00 C127.07,156.14 127.83,160.50 127.64,160.70 C126.22,162.11 123.65,153.56 122.48,143.50 C121.57,135.78 123.56,140.08 125.95,151.00 ZM 191.50 564.00 C192.26,565.23 195.00,565.33 195.00,564.12 C195.00,563.64 194.37,562.72 193.59,562.07 C192.02,560.77 190.42,562.25 191.50,564.00 ZM 128.00 103.00 C128.39,102.61 131.42,100.52 146.78,90.13 C131.33,100.58 128.39,102.61 128.00,103.01 C127.88,103.13 127.49,103.39 126.93,103.72 C127.50,103.38 127.89,103.11 128.00,103.00 Z" fill="rgb(3,125,209)" data-index="1" style="opacity: 1;"></path>
<path d="M 125.95 151.00 C125.92,150.88 125.89,150.75 125.87,150.63 C125.94,150.94 126.00,151.23 126.07,151.50 C127.24,156.45 128.55,162.07 129.00,164.00 C129.36,165.56 130.42,169.41 131.56,173.32 C130.56,170.39 129.71,168.40 129.28,168.26 C128.71,168.07 127.97,168.63 127.63,169.51 C127.28,170.43 127.44,170.85 128.01,170.49 C128.56,170.16 129.00,170.77 129.00,171.86 C129.00,172.94 128.44,174.04 127.75,174.28 C126.01,174.91 123.00,173.20 123.00,171.59 C123.00,169.49 116.80,168.61 115.71,170.56 C114.91,171.99 114.62,171.96 112.81,170.33 C111.71,169.33 110.28,167.21 109.62,165.61 C108.52,162.91 108.32,162.82 106.79,164.35 C104.78,166.36 104.11,166.40 102.08,164.61 C101.21,163.85 99.04,162.91 97.25,162.53 C94.66,161.98 94.00,162.16 94.00,163.42 C94.00,164.50 93.07,165.00 91.06,165.00 C89.44,165.00 87.81,165.49 87.44,166.09 C87.04,166.74 85.43,166.93 83.42,166.55 C80.83,166.07 79.62,166.38 78.04,167.96 C75.16,170.84 73.49,170.51 70.43,166.50 C67.43,162.56 64.78,162.04 62.72,164.99 C61.95,166.09 61.02,166.69 60.66,166.33 C59.45,165.12 59.98,164.00 61.75,163.98 C63.12,163.97 63.20,163.78 62.14,163.11 C60.99,162.38 60.99,162.16 62.14,161.70 C62.89,161.40 63.05,161.13 62.50,161.09 C60.82,160.99 59.38,162.36 57.87,165.50 C56.67,168.01 55.93,168.45 53.34,168.20 C51.22,168.00 50.06,168.41 49.63,169.52 C48.41,172.70 47.06,169.84 47.60,165.21 C48.23,159.72 51.72,156.09 56.42,156.04 C58.67,156.01 60.75,154.56 65.42,149.75 C70.94,144.07 81.50,136.00 83.42,136.00 C83.84,136.00 85.33,135.10 86.73,134.00 C88.13,132.90 90.02,132.00 90.93,132.00 C91.85,132.00 94.37,130.17 96.55,127.92 C101.55,122.76 109.31,117.00 111.26,117.00 C112.08,117.00 113.33,116.30 114.04,115.45 C114.74,114.60 115.92,114.14 116.66,114.42 C117.12,114.60 117.53,114.51 117.77,114.24 C118.64,117.05 119.85,122.03 120.95,127.54 C122.31,134.35 124.12,142.90 125.37,148.45 C123.26,139.46 121.65,136.41 122.48,143.50 C123.65,153.56 126.22,162.11 127.64,160.70 C127.83,160.50 127.07,156.14 125.95,151.00 ZM 191.50 564.00 C190.42,562.25 192.02,560.77 193.59,562.07 C194.37,562.72 195.00,563.64 195.00,564.12 C195.00,565.33 192.26,565.23 191.50,564.00 ZM 135.98 189.51 C136.03,189.69 136.07,189.87 136.10,190.04 C136.74,193.01 138.01,197.25 138.92,199.47 C139.68,201.30 140.09,203.25 140.13,205.02 C140.09,203.24 139.67,201.28 138.90,199.41 C137.97,197.16 136.70,192.89 136.07,189.91 C136.04,189.78 136.01,189.64 135.98,189.51 ZM 116.92 110.31 C116.51,110.84 116.36,111.28 116.52,111.59 C116.27,111.34 116.43,110.89 116.92,110.31 Z" fill="rgb(4,157,232)" data-index="2"></path>
<path d="M 126.79 523.60 C116.67,516.72 104.49,508.44 89.50,498.26 C81.25,492.65 70.90,485.55 66.50,482.49 L 66.35 482.38 C67.84,483.25 68.19,483.11 67.53,482.05 C66.89,481.01 71.22,479.68 80.50,478.07 C97.14,475.19 115.34,471.69 122.50,470.00 C147.33,464.11 176.33,456.57 182.00,454.51 C184.48,453.62 188.63,452.47 191.23,451.97 C193.83,451.47 198.78,449.75 202.23,448.14 C205.68,446.53 210.07,444.73 212.00,444.14 C213.41,443.71 215.66,442.94 218.14,442.07 C217.56,442.36 217.26,442.59 217.37,442.71 C217.86,443.19 224.09,441.19 230.50,438.50 C232.15,437.80 235.30,436.69 237.50,436.03 C241.32,434.88 256.17,429.22 262.50,426.51 C264.15,425.80 268.20,424.48 271.50,423.56 C274.80,422.65 279.61,421.03 282.19,419.95 C288.72,417.23 289.74,417.38 289.21,421.00 C288.97,422.65 288.35,424.00 287.83,424.00 C287.32,424.00 286.44,425.30 285.89,426.90 C285.33,428.49 284.00,430.03 282.94,430.31 C281.87,430.58 281.00,431.53 281.00,432.41 C281.00,433.28 280.61,434.00 280.13,434.00 C279.66,434.00 278.07,435.81 276.61,438.02 C274.67,440.94 274.20,442.51 274.86,443.77 C276.04,446.02 274.66,449.58 272.07,450.96 C270.94,451.57 269.33,453.40 268.48,455.03 C267.64,456.66 266.32,458.00 265.55,458.00 C264.77,458.00 263.44,460.17 262.52,462.95 C261.51,465.97 260.13,468.14 258.99,468.50 C257.86,468.86 257.33,469.68 257.66,470.55 C258.04,471.54 257.53,472.00 256.05,472.00 C254.32,472.00 253.18,473.56 250.36,479.75 C244.07,493.56 236.27,505.06 233.75,504.24 C233.31,504.10 232.53,505.11 232.00,506.49 C231.42,508.02 230.26,509.00 229.04,509.00 C227.67,509.00 226.85,509.86 226.44,511.75 C225.41,516.45 225.10,517.03 223.27,517.67 C219.93,518.85 217.03,522.32 216.38,525.91 C215.47,530.95 214.17,533.11 212.22,532.78 C211.30,532.63 210.51,532.95 210.46,533.50 C210.19,536.74 206.75,541.99 203.61,543.93 C201.18,545.43 200.00,546.90 200.00,548.43 C200.00,549.67 199.10,551.50 198.00,552.50 C196.90,553.50 196.00,554.92 196.00,555.65 C196.00,556.39 195.13,557.00 194.07,557.00 C192.83,557.00 192.02,557.80 191.82,559.24 C191.37,562.41 188.68,562.54 185.46,559.55 C183.16,557.42 178.09,555.33 173.49,554.61 C172.45,554.45 160.42,546.47 126.80,523.61 ZM 254.12 609.22 C253.17,608.62 252.29,608.03 251.63,607.53 C249.80,606.14 248.01,605.00 247.65,605.00 C246.69,605.00 230.73,594.61 211.08,581.32 C205.20,577.24 201.00,574.19 201.00,573.82 C201.00,572.75 201.46,573.00 209.04,578.14 C216.44,583.15 223.60,586.14 226.49,585.41 C229.40,584.68 230.33,581.43 228.44,578.54 C226.78,576.02 227.39,575.00 230.54,575.00 C232.21,575.00 232.90,574.24 233.36,571.93 C233.83,569.59 234.40,568.99 235.74,569.39 C237.06,569.79 238.00,568.87 239.50,565.71 C240.60,563.40 241.55,560.83 241.60,560.00 C241.83,556.66 242.08,556.21 244.00,555.71 C245.27,555.38 246.01,554.33 246.02,552.84 C246.03,551.55 246.92,549.38 248.00,548.00 C249.08,546.62 249.97,545.16 249.98,544.74 C250.03,542.81 256.70,534.06 258.32,533.80 C259.41,533.62 261.72,530.53 264.14,526.00 C266.34,521.88 268.79,517.79 269.57,516.92 C270.36,516.05 271.00,514.63 271.00,513.76 C271.00,512.16 281.89,496.80 283.91,495.55 C284.51,495.18 285.00,494.08 285.00,493.10 C285.00,492.11 285.90,490.50 287.00,489.50 C288.10,488.50 289.00,487.18 289.00,486.57 C289.00,485.95 289.87,484.70 290.93,483.80 C292.08,482.81 292.65,481.37 292.35,480.23 C292.06,479.13 292.94,476.70 294.42,474.52 C295.84,472.43 297.00,470.36 297.00,469.93 C297.00,469.49 297.92,468.84 299.04,468.49 C301.55,467.69 305.45,461.64 306.33,457.17 C306.69,455.34 307.66,452.30 308.49,450.42 C309.32,448.54 310.70,445.42 311.55,443.49 C312.41,441.56 312.84,439.54 312.51,439.01 C311.75,437.79 313.78,433.88 315.97,432.32 C316.89,431.67 318.26,429.20 319.03,426.82 C319.80,424.44 321.23,421.91 322.21,421.19 C323.20,420.47 324.01,419.12 324.01,418.19 C324.02,417.26 325.37,413.85 327.01,410.61 C328.66,407.37 330.00,404.10 330.00,403.34 C330.00,402.58 331.07,401.47 332.38,400.87 C333.93,400.17 334.60,399.18 334.30,398.04 C334.05,397.08 334.55,395.59 335.42,394.72 C337.36,392.78 337.45,391.11 335.64,390.42 C334.09,389.82 325.84,393.53 318.50,398.12 C311.09,402.75 286.38,415.07 272.70,421.14 C274.43,420.30 275.87,419.47 276.50,418.91 C277.60,417.94 282.55,415.21 287.50,412.85 C292.45,410.49 296.65,408.20 296.84,407.75 C297.03,407.30 299.44,405.80 302.20,404.40 C304.96,403.00 309.08,400.51 311.36,398.85 C315.24,396.03 315.38,395.88 312.72,396.46 C324.05,393.34 334.12,387.41 344.50,377.77 C352.19,370.62 360.21,359.99 363.90,352.28 C362.52,355.57 361.48,357.35 359.92,359.61 C358.16,362.17 354.76,366.67 352.36,369.62 C347.28,375.86 346.68,377.63 351.08,373.44 C354.89,369.80 361.74,359.55 365.90,351.25 C367.62,347.81 369.31,345.00 369.65,345.00 C371.08,345.00 369.23,362.81 367.49,365.75 C366.11,368.08 365.93,369.39 366.68,371.62 C367.29,373.42 367.30,375.82 366.73,378.00 C366.22,379.92 365.57,383.52 365.28,386.00 C365.00,388.47 363.88,391.61 362.79,392.99 C361.17,395.06 360.94,396.39 361.49,400.74 C362.03,405.06 361.87,406.00 360.63,406.00 C359.49,406.00 359.17,407.04 359.31,410.23 C359.49,414.22 359.31,414.51 356.04,415.59 C352.31,416.82 351.44,418.09 352.47,420.78 C353.22,422.73 352.91,423.64 351.63,423.21 C351.15,423.05 351.06,424.52 351.43,426.48 C352.03,429.70 351.81,430.20 349.08,431.77 C347.37,432.75 346.04,434.36 346.00,435.50 C345.81,442.02 345.33,444.29 343.90,445.33 C343.02,445.97 342.04,447.85 341.73,449.50 C340.38,456.66 339.03,460.32 337.08,462.14 C335.94,463.20 335.00,464.99 335.00,466.10 C335.00,467.20 333.70,469.32 332.10,470.81 C330.14,472.63 328.97,474.94 328.48,477.96 C328.08,480.42 327.26,483.22 326.65,484.19 C325.78,485.58 325.94,486.24 327.43,487.32 C329.39,488.76 328.83,491.25 326.72,490.45 C325.91,490.14 325.41,491.33 325.23,493.99 C325.08,496.19 324.50,499.18 323.95,500.63 C323.40,502.08 323.22,504.10 323.54,505.13 C323.90,506.25 323.65,507.00 322.93,507.00 C322.27,507.00 320.75,508.01 319.56,509.25 C317.39,511.51 316.30,511.99 312.40,512.45 C308.76,512.87 307.76,514.05 308.39,517.18 C309.04,520.46 307.19,525.77 304.65,527.87 C303.74,528.63 303.00,530.20 303.00,531.37 C303.00,532.61 301.53,534.67 299.50,536.29 C297.57,537.83 296.00,539.74 296.00,540.54 C296.00,541.34 295.55,542.00 295.00,542.00 C294.45,542.00 294.00,543.96 294.00,546.37 C294.00,549.22 293.31,551.61 292.00,553.27 C290.90,554.67 290.00,556.47 290.00,557.26 C290.00,558.06 288.54,559.14 286.75,559.66 C283.85,560.50 283.53,560.95 283.81,563.80 C283.99,565.59 283.66,567.00 283.06,567.00 C282.48,567.00 282.00,567.67 282.00,568.49 C282.00,569.31 281.08,570.55 279.95,571.24 C277.63,572.66 271.10,585.83 270.28,590.72 C269.97,592.59 268.75,594.59 267.37,595.49 C266.07,596.35 265.00,597.88 265.00,598.90 C265.00,599.92 264.31,601.32 263.48,602.02 C262.60,602.75 262.20,604.07 262.54,605.14 C263.00,606.59 262.62,607.00 260.82,607.01 C257.61,607.03 254.00,608.08 254.00,608.99 C254.00,609.05 254.04,609.13 254.12,609.22 ZM 40.76 174.88 C43.50,179.49 48.48,187.24 56.55,199.53 C68.12,217.13 75.40,223.50 78.24,218.52 C79.23,216.78 85.83,215.61 87.39,216.91 C88.07,217.47 92.42,217.93 97.06,217.94 C101.70,217.94 107.75,218.37 110.50,218.90 C114.90,219.74 115.70,219.63 117.16,217.93 C119.30,215.45 122.46,215.48 126.03,218.02 C127.99,219.41 129.07,219.69 129.56,218.91 C129.98,218.22 131.68,218.01 133.96,218.38 C139.16,219.21 141.62,217.30 140.36,213.40 C139.84,211.81 139.67,208.93 140.00,207.00 C140.10,206.38 140.14,205.71 140.13,205.02 L 140.13 205.02 C140.09,203.25 139.68,201.30 138.92,199.47 C138.27,197.88 137.43,195.25 136.77,192.79 C137.53,195.45 138.59,198.49 139.51,200.50 C140.77,203.25 143.23,209.55 144.98,214.50 C151.84,233.87 153.20,237.58 154.22,239.69 C155.64,242.64 156.56,254.77 155.45,255.88 C155.15,256.18 151.44,256.28 147.20,256.10 C131.92,255.45 125.98,255.95 123.41,258.07 C122.52,258.81 121.16,259.51 120.38,259.62 C119.60,259.74 118.18,260.73 117.23,261.83 C116.28,262.94 114.05,264.13 112.28,264.49 C109.44,265.07 108.51,264.62 104.18,260.57 C101.49,258.06 98.83,256.00 98.27,256.00 C96.32,256.00 84.81,243.45 80.52,236.64 C79.43,234.91 77.72,232.61 76.72,231.51 C73.70,228.21 56.00,201.17 56.00,199.86 C56.00,199.19 54.04,195.69 51.65,192.07 C46.85,184.81 43.10,178.89 40.76,174.88 ZM 239.43 377.17 C234.07,372.37 230.41,367.99 224.39,359.43 C229.34,366.47 234.24,372.29 239.43,377.17 ZM 309.06 397.39 C307.98,397.68 306.88,398.00 306.00,398.28 C304.75,398.67 302.82,398.93 300.49,399.07 C302.95,398.75 305.64,398.20 309.06,397.39 ZM 260.98 612.68 C264.74,613.83 270.41,613.86 296.50,613.70 L 329.50 613.50 L 296.50 613.71 C270.29,613.88 264.57,613.82 260.98,612.68 ZM 224.82 439.65 C227.42,438.69 229.72,437.80 231.00,437.25 C231.64,436.98 233.08,436.43 234.94,435.73 C232.92,436.50 231.28,437.15 230.50,437.50 C229.32,438.03 227.07,438.88 224.82,439.65 ZM 266.77 394.28 C264.74,393.48 262.70,392.58 260.67,391.58 C262.86,392.62 264.86,393.51 266.77,394.28 ZM 268.35 423.01 C267.46,423.38 266.67,423.69 266.00,423.94 C265.32,424.19 264.51,424.50 263.67,424.83 C265.19,424.23 266.85,423.58 268.35,423.01 ZM 260.95 425.94 C260.36,426.18 259.81,426.42 259.35,426.62 C258.03,427.20 256.52,427.70 255.54,427.90 C256.52,427.70 258.03,427.20 259.35,426.61 C259.76,426.43 260.31,426.20 260.95,425.94 Z" fill="rgb(3,95,173)" data-index="3" style="opacity: 1;"></path>
<path d="M 224.82 439.65 C223.92,439.96 223.02,440.26 222.19,440.52 C220.46,441.07 218.99,441.64 218.14,442.07 C215.66,442.94 213.41,443.71 212.00,444.14 C210.07,444.73 205.68,446.53 202.23,448.14 C201.72,448.37 201.18,448.61 200.61,448.85 C200.80,448.67 200.84,448.50 200.71,448.37 C200.39,448.06 198.42,448.37 196.32,449.06 C194.22,449.76 189.80,450.88 186.50,451.56 C183.20,452.24 177.35,453.75 173.50,454.93 C169.65,456.11 162.89,457.71 158.47,458.50 C154.05,459.29 148.49,460.62 146.11,461.46 C142.41,462.77 138.33,462.73 135.85,461.37 C135.50,461.17 135.58,459.37 136.03,457.37 C136.56,455.01 136.45,453.09 135.72,451.92 C134.82,450.49 134.96,449.70 136.36,448.15 C137.34,447.08 138.05,445.59 137.95,444.85 C137.51,441.63 138.08,437.93 138.93,438.46 C139.44,438.77 140.14,438.59 140.47,438.05 C140.80,437.51 142.44,437.34 144.10,437.67 C146.46,438.14 147.44,437.81 148.59,436.18 C149.39,435.03 150.66,434.32 151.40,434.60 C152.18,434.90 152.96,434.25 153.27,433.06 C153.57,431.93 154.53,431.00 155.41,431.00 C156.38,431.00 157.01,430.13 157.03,428.75 C157.05,427.51 157.89,424.12 158.89,421.21 C160.65,416.12 160.65,415.88 158.92,414.96 C157.93,414.43 152.99,413.57 147.94,413.05 C142.89,412.52 138.58,411.91 138.35,411.68 C138.11,411.45 149.11,411.49 162.79,411.77 C193.43,412.40 232.99,409.96 256.50,405.99 C259.80,405.44 269.48,404.03 278.00,402.88 C289.24,401.35 295.22,400.07 294.65,399.43 C296.62,399.44 298.48,399.33 300.49,399.07 C302.82,398.93 304.75,398.67 306.00,398.28 C306.71,398.05 307.56,397.81 308.43,397.56 C308.38,397.69 308.40,397.84 308.50,398.00 C309.21,399.15 310.51,399.22 312.20,398.24 C311.94,398.43 311.66,398.63 311.36,398.85 C309.08,400.51 304.96,403.00 302.20,404.40 C299.44,405.80 297.03,407.30 296.84,407.75 C296.65,408.20 292.45,410.49 287.50,412.85 C282.55,415.21 277.60,417.94 276.50,418.91 C275.87,419.47 274.43,420.30 272.70,421.14 C271.08,421.86 269.61,422.49 268.35,423.01 C266.85,423.58 265.19,424.23 263.67,424.83 C262.76,425.19 261.81,425.58 260.95,425.94 L 260.94 425.94 C260.31,426.20 259.76,426.43 259.35,426.61 C258.03,427.19 256.54,427.69 255.55,427.90 L 255.54 427.90 C255.23,427.97 254.98,428.00 254.80,428.00 C254.03,428.00 252.97,428.39 252.45,428.87 C251.93,429.35 247.45,431.19 242.50,432.95 C239.90,433.87 237.18,434.88 234.94,435.73 C233.08,436.43 231.64,436.98 231.00,437.25 C229.72,437.80 227.42,438.69 224.82,439.65 ZM 141.11 442.63 C141.95,443.64 142.63,443.77 143.36,443.04 C144.69,441.71 142.67,439.47 141.04,440.48 C140.20,440.99 140.22,441.56 141.11,442.63 ZM 311.00 396.91 C311.58,396.77 312.15,396.62 312.72,396.46 C313.39,396.31 313.89,396.21 314.19,396.19 C314.04,396.24 313.87,396.30 313.67,396.37 C312.95,396.62 311.86,396.83 310.91,396.94 ZM 278.31 397.70 C280.77,398.17 283.42,398.54 286.45,398.87 C283.79,398.67 281.06,398.28 278.31,397.70 ZM 191.66 451.88 C191.51,451.91 191.36,451.94 191.23,451.97 C188.63,452.47 184.48,453.62 182.00,454.51 C184.48,453.62 188.52,452.49 191.00,452.01 C191.22,451.97 191.44,451.93 191.66,451.88 Z" fill="rgb(4,140,124)" data-index="4" style="opacity: 1;"></path>
<path d="M 259.22 611.99 C257.72,611.31 255.80,610.26 254.12,609.22 C254.04,609.13 254.00,609.05 254.00,608.99 C254.00,608.08 257.61,607.03 260.82,607.01 C262.62,607.00 263.00,606.59 262.54,605.14 C262.20,604.07 262.60,602.75 263.48,602.02 C264.31,601.32 265.00,599.92 265.00,598.90 C265.00,597.88 266.07,596.35 267.37,595.49 C268.75,594.59 269.97,592.59 270.28,590.72 C271.10,585.83 277.63,572.66 279.95,571.24 C281.08,570.55 282.00,569.31 282.00,568.49 C282.00,567.67 282.48,567.00 283.06,567.00 C283.66,567.00 283.99,565.59 283.81,563.80 C283.53,560.95 283.85,560.50 286.75,559.66 C288.54,559.14 290.00,558.06 290.00,557.26 C290.00,556.47 290.90,554.67 292.00,553.27 C293.31,551.61 294.00,549.22 294.00,546.37 C294.00,543.96 294.45,542.00 295.00,542.00 C295.55,542.00 296.00,541.34 296.00,540.54 C296.00,539.74 297.57,537.83 299.50,536.29 C301.53,534.67 303.00,532.61 303.00,531.37 C303.00,530.20 303.74,528.63 304.65,527.87 C307.19,525.77 309.04,520.46 308.39,517.18 C307.76,514.05 308.76,512.87 312.40,512.45 C316.30,511.99 317.39,511.51 319.56,509.25 C320.75,508.01 322.27,507.00 322.93,507.00 C323.65,507.00 323.90,506.25 323.54,505.13 C323.22,504.10 323.40,502.08 323.95,500.63 C324.50,499.18 325.08,496.19 325.23,493.99 C325.41,491.33 325.91,490.14 326.72,490.45 C328.83,491.25 329.39,488.76 327.43,487.32 C325.94,486.24 325.78,485.58 326.65,484.19 C327.26,483.22 328.08,480.42 328.48,477.96 C328.97,474.94 330.14,472.63 332.10,470.81 C333.70,469.32 335.00,467.20 335.00,466.10 C335.00,464.99 335.94,463.20 337.08,462.14 C339.03,460.32 340.38,456.66 341.73,449.50 C342.04,447.85 343.02,445.97 343.90,445.33 C345.33,444.29 345.81,442.02 346.00,435.50 C346.04,434.36 347.37,432.75 349.08,431.77 C351.81,430.20 352.03,429.70 351.43,426.48 C351.06,424.52 351.15,423.05 351.63,423.21 C352.91,423.64 353.22,422.73 352.47,420.78 C351.44,418.09 352.31,416.82 356.04,415.59 C359.31,414.51 359.49,414.22 359.31,410.23 C359.17,407.04 359.49,406.00 360.63,406.00 C361.87,406.00 362.03,405.06 361.49,400.74 C360.94,396.39 361.17,395.06 362.79,392.99 C363.88,391.61 365.00,388.47 365.28,386.00 C365.57,383.52 366.22,379.92 366.73,378.00 C367.30,375.82 367.29,373.42 366.68,371.62 C365.93,369.39 366.11,368.08 367.49,365.75 C369.23,362.81 371.08,345.00 369.65,345.00 C369.31,345.00 367.62,347.81 365.90,351.25 C361.74,359.55 354.89,369.80 351.08,373.44 C346.68,377.63 347.28,375.86 352.36,369.62 C354.76,366.67 358.16,362.17 359.92,359.61 C361.48,357.35 362.52,355.57 363.90,352.28 C364.40,351.25 364.81,350.28 365.14,349.37 C365.84,347.40 366.80,344.74 367.68,342.27 C367.70,342.20 367.72,342.14 367.74,342.08 C368.19,340.84 368.66,339.50 369.18,338.03 L 369.19 338.00 C370.15,335.27 370.85,331.16 371.27,326.55 C371.03,331.20 370.92,335.25 371.02,336.50 C371.75,346.12 371.01,370.57 369.60,383.50 C365.27,423.22 362.14,443.13 354.35,480.50 C350.25,500.16 341.85,532.40 334.54,556.50 C332.03,564.75 329.13,574.42 328.09,578.00 C327.04,581.58 324.99,587.65 323.53,591.50 C322.07,595.35 320.53,599.85 320.10,601.50 C319.67,603.15 318.57,605.94 317.66,607.70 C316.75,609.46 316.00,611.66 316.00,612.60 C316.00,613.04 316.08,613.36 316.34,613.58 L 296.50 613.70 C270.41,613.86 264.74,613.83 260.98,612.68 C260.36,612.48 259.81,612.26 259.22,611.99 ZM 38.00 169.09 C38.00,169.17 38.00,169.24 38.00,169.32 C38.00,169.93 38.82,171.62 40.76,174.88 C40.76,174.88 40.76,174.89 40.76,174.89 C43.11,178.89 46.85,184.82 51.65,192.07 C54.04,195.69 56.00,199.19 56.00,199.86 C56.00,201.17 73.70,228.21 76.72,231.51 C77.72,232.61 79.43,234.91 80.52,236.64 C84.81,243.45 96.32,256.00 98.27,256.00 C98.83,256.00 101.49,258.06 104.18,260.57 C108.51,264.62 109.44,265.07 112.28,264.49 C114.05,264.13 116.28,262.94 117.23,261.83 C118.18,260.73 119.60,259.74 120.38,259.62 C121.16,259.51 122.52,258.81 123.41,258.07 C125.98,255.95 131.92,255.45 147.20,256.10 C151.44,256.28 155.15,256.18 155.45,255.88 C156.56,254.77 155.64,242.64 154.22,239.69 C153.34,237.87 152.20,234.86 147.50,221.62 C154.02,239.94 155.03,241.98 165.47,263.47 C172.97,278.89 173.60,280.58 175.43,290.00 C176.13,293.58 177.04,297.29 177.45,298.25 C177.95,299.39 177.78,300.00 176.96,300.00 C176.27,300.00 174.31,301.54 172.61,303.41 C169.02,307.35 161.69,309.24 160.64,306.50 C159.70,304.06 157.00,304.71 157.00,307.38 C157.00,308.69 156.31,310.33 155.46,311.03 C154.17,312.11 153.40,311.83 150.71,309.28 C148.94,307.62 146.22,305.95 144.66,305.59 C141.49,304.84 138.38,302.16 123.08,287.00 C110.19,274.23 98.98,261.79 88.38,248.50 C80.77,238.95 64.59,216.90 62.52,213.23 C57.11,203.70 43.24,182.07 41.51,180.50 C39.02,178.23 35.49,170.00 37.01,170.00 C37.52,170.00 37.95,169.60 38.00,169.09 ZM 309.06 397.39 C309.65,397.24 310.27,397.09 310.91,396.94 C311.86,396.83 312.95,396.62 313.67,396.37 C313.87,396.30 314.04,396.24 314.19,396.19 C314.98,396.13 314.41,396.63 312.20,398.24 C310.51,399.22 309.21,399.15 308.50,398.00 C308.40,397.84 308.38,397.69 308.43,397.56 C308.64,397.50 308.85,397.44 309.06,397.39 ZM 324.72 613.53 C329.11,612.99 332.90,611.65 341.50,606.31 C338.87,608.01 336.83,609.29 335.50,610.05 L 329.50 613.50 ZM 157.03 428.63 C157.05,427.46 157.89,424.12 158.89,421.21 C157.89,424.12 157.05,427.51 157.03,428.75 C157.02,429.95 156.53,430.77 155.76,430.96 C156.53,430.47 157.02,429.61 157.03,428.63 ZM 153.86 431.89 C153.60,432.22 153.39,432.63 153.27,433.06 C153.20,433.33 153.10,433.58 152.99,433.80 C153.00,433.71 153.00,433.61 153.00,433.51 C153.00,432.94 153.34,432.34 153.86,431.89 ZM 36.24 168.97 C36.26,168.94 36.27,168.92 36.28,168.89 C36.46,168.64 36.64,168.44 36.80,168.29 C36.63,168.46 36.44,168.69 36.24,168.97 Z" fill="rgb(5,71,139)" data-index="5" style="opacity: 1;"></path>
<path d="M 191.66 451.88 C191.44,451.93 191.22,451.97 191.00,452.01 C188.52,452.49 184.48,453.62 182.00,454.51 C176.33,456.57 147.33,464.11 122.50,470.00 C115.34,471.69 97.14,475.19 80.50,478.07 C71.22,479.68 66.89,481.01 67.53,482.05 C68.19,483.11 67.84,483.25 66.35,482.38 C61.96,479.32 56.10,475.29 53.25,473.36 C44.70,467.57 38.07,461.05 35.19,455.61 L 32.50 450.50 L 32.50 390.90 L 38.22 392.83 C51.56,397.33 80.04,404.06 96.00,406.48 C120.18,410.14 130.99,411.03 159.00,411.64 C172.62,411.93 186.59,411.79 200.07,411.25 C187.27,411.81 174.39,412.01 162.79,411.77 C149.11,411.49 138.11,411.45 138.35,411.68 C138.58,411.91 142.89,412.52 147.94,413.05 C152.99,413.57 157.93,414.43 158.92,414.96 C160.65,415.88 160.65,416.12 158.89,421.21 C157.89,424.12 157.05,427.46 157.03,428.63 C157.02,429.61 156.53,430.47 155.76,430.96 C155.65,430.99 155.53,431.00 155.41,431.00 C154.86,431.00 154.29,431.35 153.86,431.89 C153.34,432.34 153.00,432.94 153.00,433.51 C153.00,433.61 153.00,433.71 152.99,433.80 C152.60,434.50 152.00,434.83 151.40,434.60 C150.66,434.32 149.39,435.03 148.59,436.18 C147.44,437.81 146.46,438.14 144.10,437.67 C142.44,437.34 140.80,437.51 140.47,438.05 C140.14,438.59 139.44,438.77 138.93,438.46 C138.08,437.93 137.51,441.63 137.95,444.85 C138.05,445.59 137.34,447.08 136.36,448.15 C134.96,449.70 134.82,450.49 135.72,451.92 C136.45,453.09 136.56,455.01 136.03,457.37 C135.58,459.37 135.50,461.17 135.85,461.37 C138.33,462.73 142.41,462.77 146.11,461.46 C148.49,460.62 154.05,459.29 158.47,458.50 C162.89,457.71 169.65,456.11 173.50,454.93 C177.35,453.75 183.20,452.24 186.50,451.56 C189.80,450.88 194.22,449.76 196.32,449.06 C198.42,448.37 200.39,448.06 200.71,448.37 C200.84,448.50 200.80,448.67 200.61,448.85 C197.57,450.14 193.93,451.38 191.66,451.88 ZM 141.11 442.63 C140.22,441.56 140.20,440.99 141.04,440.48 C142.67,439.47 144.69,441.71 143.36,443.04 C142.63,443.77 141.95,443.64 141.11,442.63 ZM 37.10 168.05 C37.06,168.08 37.01,168.11 36.96,168.15 C37.01,168.11 37.06,168.07 37.10,168.05 Z" fill="rgb(5,169,141)" data-index="6" style="opacity: 1;"></path>
<path d="M 33.63 175.51 C34.30,173.26 35.28,170.79 36.24,168.97 C36.44,168.69 36.63,168.46 36.80,168.29 C36.86,168.23 36.91,168.19 36.96,168.15 C37.01,168.11 37.06,168.08 37.10,168.05 C37.61,167.74 37.95,168.04 38.00,169.09 C37.95,169.60 37.52,170.00 37.01,170.00 C35.49,170.00 39.02,178.23 41.51,180.50 C41.62,180.60 41.78,180.78 41.99,181.04 C41.84,180.89 41.70,180.75 41.58,180.64 C40.44,179.62 38.74,176.92 37.81,174.64 C36.11,170.50 36.11,170.50 36.06,173.63 C36.03,175.35 35.35,177.29 34.56,177.95 C32.96,179.28 32.71,187.89 34.15,191.81 C35.02,194.18 37.00,193.97 37.00,191.50 C37.00,189.46 39.09,188.53 40.10,190.12 C40.58,190.88 40.98,191.02 40.98,190.44 C40.99,189.85 40.10,188.41 39.00,187.23 C36.68,184.74 36.51,184.00 38.26,184.00 C38.95,184.00 40.08,184.90 40.77,186.00 C41.45,187.10 42.77,188.00 43.68,188.00 C44.59,188.00 46.23,188.79 47.32,189.75 C47.99,190.34 48.30,190.50 48.24,190.17 C53.10,197.63 59.31,207.57 62.52,213.23 C64.59,216.90 80.77,238.95 88.38,248.50 C98.98,261.79 110.19,274.23 123.08,287.00 C138.38,302.16 141.49,304.84 144.66,305.59 C146.22,305.95 148.94,307.62 150.71,309.28 C153.40,311.83 154.17,312.11 155.46,311.03 C156.31,310.33 157.00,308.69 157.00,307.38 C157.00,304.71 159.70,304.06 160.64,306.50 C161.69,309.24 169.02,307.35 172.61,303.41 C174.31,301.54 176.27,300.00 176.96,300.00 C177.78,300.00 177.95,299.39 177.45,298.25 C177.04,297.29 176.13,293.58 175.43,290.00 C173.60,280.58 172.97,278.89 165.47,263.47 C164.96,262.41 164.46,261.39 163.99,260.42 C165.54,263.58 167.30,267.15 169.34,271.26 C174.74,282.21 179.39,290.94 179.66,290.67 C179.93,290.41 179.50,288.91 178.71,287.34 C177.92,285.78 176.24,281.37 174.99,277.54 C173.40,272.72 171.57,268.77 168.78,264.31 C171.57,268.76 173.41,272.72 175.01,277.54 C177.67,285.51 180.40,291.57 184.17,297.76 C181.73,294.21 181.03,293.64 183.14,297.50 C188.88,308.00 194.01,316.50 200.33,326.01 C202.35,329.04 204.00,332.03 204.00,332.66 C204.00,333.28 205.12,335.75 206.49,338.15 C209.64,343.66 209.62,344.20 206.09,348.07 C203.65,350.73 202.71,351.14 200.38,350.56 C198.84,350.17 195.89,348.33 193.82,346.45 C191.75,344.58 188.86,342.75 187.40,342.39 C182.98,341.28 176.85,337.40 169.87,331.30 C160.26,322.90 154.16,317.94 148.57,313.99 C145.86,312.07 141.30,308.25 138.45,305.50 C123.24,290.83 118.55,286.85 112.60,283.52 C109.00,281.51 104.90,278.49 103.49,276.81 C102.08,275.12 100.77,273.92 100.59,274.12 C100.40,274.33 99.53,275.92 98.65,277.66 C97.16,280.59 96.76,280.78 93.02,280.28 C90.38,279.92 89.00,280.12 89.00,280.87 C89.00,281.49 87.88,282.00 86.50,282.00 C85.12,282.00 84.00,281.56 84.00,281.03 C84.00,280.50 83.30,280.33 82.44,280.66 C81.59,280.99 81.12,281.86 81.40,282.60 C81.68,283.33 81.48,284.20 80.95,284.53 C79.81,285.23 81.58,288.92 83.91,290.72 C85.30,291.79 85.22,291.94 83.25,291.97 C81.93,291.99 81.00,292.62 81.00,293.50 C81.00,294.33 81.35,295.00 81.79,295.00 C82.22,295.00 82.64,295.90 82.73,297.00 C82.92,299.53 81.46,299.56 79.34,297.09 C78.44,296.04 77.08,295.42 76.31,295.71 C75.55,296.00 74.99,295.85 75.08,295.37 C75.17,294.89 75.18,293.47 75.12,292.21 C75.02,290.25 74.72,290.08 73.00,291.00 C70.37,292.41 70.48,293.56 73.47,296.16 C74.84,297.35 76.42,299.73 76.98,301.45 C78.15,304.99 85.43,310.91 94.00,315.29 C97.03,316.84 104.22,320.80 110.00,324.10 C115.78,327.39 122.97,331.22 126.00,332.61 C141.45,339.69 146.29,342.62 149.80,347.00 C153.22,351.26 155.28,353.56 160.93,359.39 C162.26,360.77 163.67,361.70 164.06,361.46 C165.17,360.77 167.25,363.78 166.50,365.00 C166.13,365.59 165.07,365.84 164.13,365.54 C162.98,365.18 161.87,365.94 160.72,367.91 C158.92,370.94 158.43,373.47 159.79,372.63 C160.23,372.36 160.66,373.11 160.75,374.31 C160.84,375.50 160.59,375.97 160.21,375.36 C159.76,374.65 158.69,374.56 157.25,375.09 C155.59,375.71 155.00,376.74 155.00,379.00 C155.00,380.68 155.62,382.30 156.38,382.59 C158.47,383.40 156.29,391.11 153.78,391.77 C152.15,392.19 151.97,392.85 152.53,396.20 C153.05,399.25 152.82,400.41 151.54,401.34 C148.76,403.38 150.66,406.18 154.61,405.84 C156.86,405.65 158.37,406.11 159.23,407.27 C160.69,409.25 170.92,411.42 175.48,410.73 C177.14,410.48 181.88,410.61 186.00,411.03 C188.66,411.30 190.73,411.46 192.58,411.51 C181.46,411.83 170.11,411.88 159.00,411.64 C130.99,411.03 120.18,410.14 96.00,406.48 C95.16,406.35 94.29,406.21 93.39,406.06 C93.96,406.15 94.50,406.22 95.00,406.28 C98.11,406.65 98.39,406.47 97.65,404.54 C97.33,403.69 96.12,403.00 94.97,403.00 C93.63,403.00 93.14,402.58 93.61,401.83 C94.12,401.00 93.78,400.90 92.41,401.51 C91.36,401.97 88.47,402.54 85.98,402.76 C82.31,403.09 81.09,402.76 79.52,401.03 C77.92,399.26 77.80,398.55 78.79,396.96 C79.46,395.90 80.00,394.38 80.00,393.60 C80.00,391.79 85.71,388.21 89.94,387.36 C92.63,386.82 93.06,386.37 92.59,384.52 C92.29,383.30 92.88,379.29 93.90,375.60 C95.71,369.08 98.20,365.76 100.59,366.67 C103.04,367.61 105.62,362.45 105.49,356.87 C105.43,353.92 105.94,350.42 106.63,349.09 C107.44,347.53 107.57,346.06 106.99,344.97 C106.33,343.75 106.69,342.63 108.28,340.93 C110.24,338.82 110.52,338.76 110.83,340.34 C111.02,341.37 111.87,341.98 112.83,341.80 C114.73,341.44 117.52,333.79 116.61,331.43 C116.29,330.59 113.66,328.82 110.76,327.51 C107.87,326.19 103.98,323.74 102.11,322.06 C100.25,320.38 98.33,319.00 97.84,319.00 C97.36,319.00 95.28,317.94 93.23,316.65 C91.18,315.35 85.45,312.13 80.50,309.49 C75.55,306.84 68.64,302.95 65.15,300.84 C61.65,298.73 58.61,297.00 58.39,297.00 C58.16,297.00 52.38,293.62 45.53,289.50 C38.69,285.38 32.84,282.00 32.54,282.00 C32.53,282.00 32.52,282.05 32.50,282.15 C32.52,199.93 32.68,181.69 33.63,175.51 ZM 116.51 111.57 C117.30,111.39 119.53,110.16 121.96,108.53 C124.84,106.59 128.34,105.00 129.73,105.00 C132.97,105.00 138.72,101.47 139.50,99.00 C139.83,97.96 140.98,96.82 142.05,96.48 C143.12,96.14 144.00,95.28 144.00,94.57 C144.00,92.33 158.41,83.52 160.23,84.64 C160.65,84.90 161.00,84.42 161.00,83.56 C161.00,82.70 161.38,82.00 161.85,82.00 C162.67,82.00 165.44,79.87 169.50,76.12 C172.30,73.53 178.24,70.01 179.82,70.00 C180.54,70.00 182.61,68.88 184.41,67.50 C186.21,66.12 188.06,65.00 188.52,65.00 C188.97,65.00 191.18,63.08 193.43,60.73 C198.25,55.71 207.96,49.42 208.08,51.26 C208.14,52.19 208.29,52.18 208.68,51.21 C209.56,49.01 212.00,51.89 212.00,55.12 C212.00,56.71 212.35,58.00 212.78,58.00 C214.07,58.00 214.24,72.23 212.96,73.03 C212.18,73.51 211.83,79.18 211.84,91.00 C211.85,101.86 211.32,111.04 210.43,115.72 C209.64,119.82 209.00,124.94 209.00,127.10 C209.00,129.71 208.37,131.56 207.10,132.65 C205.53,133.99 205.37,134.77 206.20,137.15 C207.26,140.19 206.72,143.00 205.08,143.00 C203.66,143.00 202.20,136.97 202.74,133.31 C203.32,129.34 201.37,128.18 194.28,128.30 C190.54,128.36 188.90,128.82 188.46,129.94 C187.93,131.30 187.68,131.27 186.51,129.67 C185.38,128.13 184.81,128.03 182.91,129.05 C181.04,130.05 180.45,129.97 179.44,128.59 C178.34,127.09 178.07,127.07 176.68,128.46 C174.74,130.41 171.00,130.47 171.00,128.55 C171.00,127.50 169.90,127.15 167.00,127.27 C163.79,127.39 163.00,127.80 163.00,129.33 C163.00,130.92 162.74,131.03 161.50,130.00 C159.74,128.54 159.55,125.85 161.09,124.31 C161.82,123.58 161.86,122.59 161.23,121.36 C160.70,120.34 160.47,118.82 160.71,118.00 C160.99,117.04 160.86,116.90 160.33,117.61 C159.87,118.22 158.73,118.60 157.79,118.45 C156.86,118.31 155.08,119.06 153.85,120.13 C152.62,121.19 151.03,121.84 150.31,121.56 C149.45,121.23 149.00,121.91 149.00,123.56 C149.00,124.94 148.32,126.32 147.50,126.64 C146.68,126.95 146.00,127.95 145.99,128.86 C145.99,130.07 144.94,130.56 141.99,130.73 C139.80,130.85 138.00,130.51 138.00,129.98 C138.00,129.44 137.21,129.01 136.25,129.02 C134.74,129.03 134.71,129.18 136.00,130.09 C137.17,130.92 137.19,131.07 136.09,130.77 C134.77,130.42 134.26,129.10 133.77,124.75 C133.66,123.79 133.31,123.00 132.98,123.00 C132.65,123.00 132.48,121.69 132.59,120.09 C132.73,118.00 132.27,117.04 130.96,116.70 C128.94,116.17 127.74,118.15 128.64,120.50 C128.95,121.32 128.72,122.00 128.11,122.00 C127.50,122.00 127.00,123.16 127.00,124.57 C127.00,125.99 126.29,127.85 125.43,128.71 C123.46,130.69 124.18,140.27 126.98,149.38 C129.57,157.79 132.00,168.41 132.00,171.35 C132.00,172.61 132.65,175.94 133.60,179.96 C132.91,177.52 132.21,175.22 131.56,173.32 C130.42,169.41 129.36,165.56 129.00,164.00 C128.55,162.07 127.24,156.45 126.07,151.50 C126.00,151.23 125.94,150.94 125.87,150.63 L 125.87 150.63 C125.70,149.87 125.53,149.14 125.37,148.45 C124.12,142.90 122.31,134.35 120.95,127.54 C119.85,122.03 118.64,117.05 117.77,114.24 C117.91,114.07 118.00,113.84 118.00,113.55 C118.00,112.79 117.44,111.97 116.75,111.73 C116.65,111.69 116.57,111.65 116.52,111.59 C116.51,111.58 116.51,111.57 116.51,111.57 ZM 160.26 110.73 C160.35,111.96 161.34,112.57 163.48,112.73 C166.23,112.94 166.60,112.65 166.80,110.10 C166.96,107.92 166.51,107.10 164.90,106.68 C163.37,106.28 162.64,106.66 162.28,108.05 C162.00,109.11 161.40,109.75 160.95,109.47 C160.49,109.19 160.18,109.75 160.26,110.73 ZM 196.76 411.37 C199.06,411.16 201.52,410.72 204.97,409.99 C208.58,409.22 210.56,409.17 210.78,409.84 C210.92,410.26 212.21,410.49 214.17,410.49 C209.52,410.79 204.80,411.04 200.07,411.25 C198.97,411.29 197.87,411.33 196.76,411.37 ZM 198.30 141.00 C197.68,141.00 196.51,141.25 195.71,141.56 C194.07,142.19 192.56,139.39 194.04,138.47 C194.57,138.15 196.00,138.59 197.22,139.44 C198.44,140.30 198.93,141.00 198.30,141.00 ZM 201.00 134.00 C201.00,134.55 200.10,135.00 199.00,135.00 C197.90,135.00 197.00,134.55 197.00,134.00 C197.00,133.45 197.90,133.00 199.00,133.00 C200.10,133.00 201.00,133.45 201.00,134.00 ZM 165.00 371.11 C165.00,372.49 163.38,372.16 162.00,370.50 C160.65,368.87 160.97,368.67 163.42,369.61 C164.29,369.94 165.00,370.62 165.00,371.11 ZM 220.13 410.08 C232.31,408.98 249.12,407.13 255.14,406.22 C245.44,407.79 233.24,409.11 220.13,410.08 ZM 70.94 401.55 C58.53,398.74 45.88,395.42 38.22,392.83 L 35.80 392.01 L 41.75 393.86 C49.51,396.28 60.59,399.15 70.94,401.55 ZM 135.98 189.51 C135.90,189.09 135.80,188.67 135.71,188.25 C137.02,193.09 138.41,197.71 139.40,200.25 C138.51,198.24 137.49,195.34 136.77,192.79 L 136.77 192.79 C136.51,191.82 136.28,190.88 136.10,190.04 C136.07,189.87 136.03,189.69 135.98,189.51 ZM 211.88 341.05 C216.27,347.68 220.44,353.81 224.39,359.43 L 224.54 359.64 C220.99,354.73 216.88,348.69 211.88,341.05 ZM 140.54 202.88 C141.73,205.70 143.55,210.43 144.99,214.50 C150.88,231.19 153.16,237.54 158.04,248.04 C153.87,239.16 152.00,234.27 147.50,221.62 C146.76,219.52 145.92,217.16 144.98,214.50 C143.63,210.68 141.85,206.05 140.54,202.88 ZM 256.58 405.98 C259.44,405.46 268.79,404.09 277.50,402.93 C285.32,401.88 290.68,400.94 293.16,400.25 C290.75,400.93 285.57,401.85 278.00,402.88 C269.55,404.02 259.96,405.41 256.58,405.98 Z" fill="rgb(11,50,52)" data-index="7" style="opacity: 1;"></path>
<path d="M 70.94 401.55 C60.59,399.15 49.51,396.28 41.75,393.86 L 35.80 392.01 L 32.50 390.90 L 32.50 314.00 C32.50,302.44 32.50,291.85 32.50,282.15 C32.52,282.05 32.53,282.00 32.54,282.00 C32.84,282.00 38.69,285.38 45.53,289.50 C52.38,293.62 58.16,297.00 58.39,297.00 C58.61,297.00 61.65,298.73 65.15,300.84 C68.64,302.95 75.55,306.84 80.50,309.49 C85.45,312.13 91.18,315.35 93.23,316.65 C95.28,317.94 97.36,319.00 97.84,319.00 C98.33,319.00 100.25,320.38 102.11,322.06 C103.98,323.74 107.87,326.19 110.76,327.51 C113.66,328.82 116.29,330.59 116.61,331.43 C117.52,333.79 114.73,341.44 112.83,341.80 C111.87,341.98 111.02,341.37 110.83,340.34 C110.52,338.76 110.24,338.82 108.28,340.93 C106.69,342.63 106.33,343.75 106.99,344.97 C107.57,346.06 107.44,347.53 106.63,349.09 C105.94,350.42 105.43,353.92 105.49,356.87 C105.62,362.45 103.04,367.61 100.59,366.67 C98.20,365.76 95.71,369.08 93.90,375.60 C92.88,379.29 92.29,383.30 92.59,384.52 C93.06,386.37 92.63,386.82 89.94,387.36 C85.71,388.21 80.00,391.79 80.00,393.60 C80.00,394.38 79.46,395.90 78.79,396.96 C77.80,398.55 77.92,399.26 79.52,401.03 C81.09,402.76 82.31,403.09 85.98,402.76 C88.47,402.54 91.36,401.97 92.41,401.51 C93.78,400.90 94.12,401.00 93.61,401.83 C93.14,402.58 93.63,403.00 94.97,403.00 C96.12,403.00 97.33,403.69 97.65,404.54 C98.39,406.47 98.11,406.65 95.00,406.28 C94.50,406.22 93.96,406.15 93.39,406.06 C86.97,405.00 79.01,403.38 70.94,401.55 ZM 41.58 180.64 C41.70,180.75 41.84,180.89 41.99,181.04 C43.08,182.41 45.44,185.88 48.24,190.17 C48.30,190.50 47.99,190.34 47.32,189.75 C46.23,188.79 44.59,188.00 43.68,188.00 C42.77,188.00 41.45,187.10 40.77,186.00 C40.08,184.90 38.95,184.00 38.26,184.00 C36.51,184.00 36.68,184.74 39.00,187.23 C40.10,188.41 40.99,189.85 40.98,190.44 C40.98,191.02 40.58,190.88 40.10,190.12 C39.09,188.53 37.00,189.46 37.00,191.50 C37.00,193.97 35.02,194.18 34.15,191.81 C32.71,187.89 32.96,179.28 34.56,177.95 C35.35,177.29 36.03,175.35 36.06,173.63 C36.11,170.50 36.11,170.50 37.81,174.64 C38.74,176.92 40.44,179.62 41.58,180.64 Z" fill="rgb(21,90,53)" data-index="8" style="opacity: 1;"></path>
<path d="M 117.16 110.04 C119.03,108.53 121.94,106.54 123.84,105.50 C125.02,104.86 126.14,104.21 126.93,103.72 C127.49,103.39 127.88,103.13 128.00,103.01 C128.39,102.61 131.33,100.58 146.78,90.13 C150.32,87.73 154.52,84.89 159.50,81.52 C166.10,77.06 178.00,68.98 185.94,63.57 C199.51,54.30 212.08,45.86 222.11,39.24 C218.38,41.79 215.57,43.82 215.08,44.41 C213.97,45.74 213.15,308.48 214.25,309.58 C215.36,310.69 215.94,309.79 217.53,303.65 C216.56,307.60 215.99,311.33 215.92,314.50 C215.85,317.25 215.48,320.62 215.08,322.00 C213.66,326.96 213.01,311.71 213.03,273.65 C213.04,234.07 212.61,226.00 210.47,226.00 C209.08,226.00 207.00,231.04 207.00,234.41 C207.00,237.27 203.60,239.43 202.04,237.55 C201.42,236.80 201.17,235.14 201.49,233.85 C201.90,232.17 201.33,230.71 199.49,228.75 C196.07,225.09 195.18,225.28 194.81,229.75 C194.51,233.40 194.41,233.49 190.88,233.18 C188.18,232.95 187.10,233.31 186.60,234.60 C186.23,235.55 186.40,236.80 186.97,237.37 C188.81,239.21 188.07,240.00 184.50,240.00 C181.13,240.00 179.92,238.79 182.00,237.50 C182.55,237.16 183.00,235.53 183.00,233.87 C183.00,231.56 182.60,230.93 181.29,231.18 C179.24,231.58 177.78,237.38 179.34,238.94 C180.09,239.69 179.90,240.00 178.70,240.00 C177.57,240.00 177.00,240.81 177.00,242.39 C177.00,244.72 174.66,246.53 172.99,245.49 C172.53,245.21 171.87,243.68 171.52,242.09 C171.17,240.51 170.00,238.41 168.92,237.43 C167.03,235.72 166.84,235.73 164.23,237.68 C162.40,239.05 161.57,240.51 161.72,242.11 C162.52,250.57 164.04,257.38 165.64,259.64 C166.81,261.28 167.85,262.83 168.78,264.31 L 168.79 264.33 C171.58,268.78 173.40,272.72 174.99,277.54 C176.24,281.37 177.92,285.78 178.71,287.34 C179.50,288.91 179.93,290.41 179.66,290.67 C179.39,290.94 174.74,282.21 169.34,271.26 C167.30,267.15 165.54,263.58 163.99,260.42 L 163.99 260.42 C161.50,255.30 159.61,251.38 158.04,248.04 C153.16,237.54 150.88,231.19 144.99,214.50 C143.55,210.43 141.73,205.70 140.54,202.88 L 140.54 202.88 C140.15,201.94 139.80,201.13 139.51,200.50 C139.47,200.42 139.44,200.33 139.40,200.25 C138.41,197.71 137.02,193.09 135.71,188.25 C135.10,185.52 134.36,182.65 133.60,179.96 C132.65,175.94 132.00,172.61 132.00,171.35 C132.00,168.41 129.57,157.79 126.98,149.38 C124.18,140.27 123.46,130.69 125.43,128.71 C126.29,127.85 127.00,125.99 127.00,124.57 C127.00,123.16 127.50,122.00 128.11,122.00 C128.72,122.00 128.95,121.32 128.64,120.50 C127.74,118.15 128.94,116.17 130.96,116.70 C132.27,117.04 132.73,118.00 132.59,120.09 C132.48,121.69 132.65,123.00 132.98,123.00 C133.31,123.00 133.66,123.79 133.77,124.75 C134.26,129.10 134.77,130.42 136.09,130.77 C137.19,131.07 137.17,130.92 136.00,130.09 C134.71,129.18 134.74,129.03 136.25,129.02 C137.21,129.01 138.00,129.44 138.00,129.98 C138.00,130.51 139.80,130.85 141.99,130.73 C144.94,130.56 145.99,130.07 145.99,128.86 C146.00,127.95 146.68,126.95 147.50,126.64 C148.32,126.32 149.00,124.94 149.00,123.56 C149.00,121.91 149.45,121.23 150.31,121.56 C151.03,121.84 152.62,121.19 153.85,120.13 C155.08,119.06 156.86,118.31 157.79,118.45 C158.73,118.60 159.87,118.22 160.33,117.61 C160.86,116.90 160.99,117.04 160.71,118.00 C160.47,118.82 160.70,120.34 161.23,121.36 C161.86,122.59 161.82,123.58 161.09,124.31 C159.55,125.85 159.74,128.54 161.50,130.00 C162.74,131.03 163.00,130.92 163.00,129.33 C163.00,127.80 163.79,127.39 167.00,127.27 C169.90,127.15 171.00,127.50 171.00,128.55 C171.00,130.47 174.74,130.41 176.68,128.46 C178.07,127.07 178.34,127.09 179.44,128.59 C180.45,129.97 181.04,130.05 182.91,129.05 C184.81,128.03 185.38,128.13 186.51,129.67 C187.68,131.27 187.93,131.30 188.46,129.94 C188.90,128.82 190.54,128.36 194.28,128.30 C201.37,128.18 203.32,129.34 202.74,133.31 C202.20,136.97 203.66,143.00 205.08,143.00 C206.72,143.00 207.26,140.19 206.20,137.15 C205.37,134.77 205.53,133.99 207.10,132.65 C208.37,131.56 209.00,129.71 209.00,127.10 C209.00,124.94 209.64,119.82 210.43,115.72 C211.32,111.04 211.85,101.86 211.84,91.00 C211.83,79.18 212.18,73.51 212.96,73.03 C214.24,72.23 214.07,58.00 212.78,58.00 C212.35,58.00 212.00,56.71 212.00,55.12 C212.00,51.89 209.56,49.01 208.68,51.21 C208.29,52.18 208.14,52.19 208.08,51.26 C207.96,49.42 198.25,55.71 193.43,60.73 C191.18,63.08 188.97,65.00 188.52,65.00 C188.06,65.00 186.21,66.12 184.41,67.50 C182.61,68.88 180.54,70.00 179.82,70.00 C178.24,70.01 172.30,73.53 169.50,76.12 C165.44,79.87 162.67,82.00 161.85,82.00 C161.38,82.00 161.00,82.70 161.00,83.56 C161.00,84.42 160.65,84.90 160.23,84.64 C158.41,83.52 144.00,92.33 144.00,94.57 C144.00,95.28 143.12,96.14 142.05,96.48 C140.98,96.82 139.83,97.96 139.50,99.00 C138.72,101.47 132.97,105.00 129.73,105.00 C128.34,105.00 124.84,106.59 121.96,108.53 C119.53,110.16 117.30,111.39 116.51,111.57 C116.37,111.26 116.52,110.83 116.92,110.31 C116.99,110.23 117.07,110.13 117.16,110.04 ZM 239.43 377.17 C245.74,383.11 252.49,387.67 260.27,391.39 C260.40,391.45 260.54,391.52 260.67,391.58 C262.70,392.58 264.74,393.48 266.77,394.28 L 266.77 394.28 C270.71,395.86 274.25,396.92 278.31,397.70 C281.06,398.28 283.79,398.67 286.45,398.87 C286.92,398.91 287.39,398.96 287.88,399.01 C290.46,399.26 292.62,399.41 294.65,399.43 C294.83,399.64 294.32,399.91 293.16,400.25 C290.68,400.94 285.32,401.88 277.50,402.93 C268.79,404.09 259.44,405.46 256.58,405.98 L 256.50 405.99 C256.05,406.07 255.60,406.14 255.14,406.22 C249.12,407.13 232.31,408.98 220.13,410.08 C218.16,410.22 216.17,410.36 214.17,410.49 C212.21,410.49 210.92,410.26 210.78,409.84 C210.56,409.17 208.58,409.22 204.97,409.99 C201.52,410.72 199.06,411.16 196.76,411.37 C195.37,411.42 193.98,411.47 192.58,411.51 C190.73,411.46 188.66,411.30 186.00,411.03 C181.88,410.61 177.14,410.48 175.48,410.73 C170.92,411.42 160.69,409.25 159.23,407.27 C158.37,406.11 156.86,405.65 154.61,405.84 C150.66,406.18 148.76,403.38 151.54,401.34 C152.82,400.41 153.05,399.25 152.53,396.20 C151.97,392.85 152.15,392.19 153.78,391.77 C156.29,391.11 158.47,383.40 156.38,382.59 C155.62,382.30 155.00,380.68 155.00,379.00 C155.00,376.74 155.59,375.71 157.25,375.09 C158.69,374.56 159.76,374.65 160.21,375.36 C160.59,375.97 160.84,375.50 160.75,374.31 C160.66,373.11 160.23,372.36 159.79,372.63 C158.43,373.47 158.92,370.94 160.72,367.91 C161.87,365.94 162.98,365.18 164.13,365.54 C165.07,365.84 166.13,365.59 166.50,365.00 C167.25,363.78 165.17,360.77 164.06,361.46 C163.67,361.70 162.26,360.77 160.93,359.39 C155.28,353.56 153.22,351.26 149.80,347.00 C146.29,342.62 141.45,339.69 126.00,332.61 C122.97,331.22 115.78,327.39 110.00,324.10 C104.22,320.80 97.03,316.84 94.00,315.29 C85.43,310.91 78.15,304.99 76.98,301.45 C76.42,299.73 74.84,297.35 73.47,296.16 C70.48,293.56 70.37,292.41 73.00,291.00 C74.72,290.08 75.02,290.25 75.12,292.21 C75.18,293.47 75.17,294.89 75.08,295.37 C74.99,295.85 75.55,296.00 76.31,295.71 C77.08,295.42 78.44,296.04 79.34,297.09 C81.46,299.56 82.92,299.53 82.73,297.00 C82.64,295.90 82.22,295.00 81.79,295.00 C81.35,295.00 81.00,294.33 81.00,293.50 C81.00,292.62 81.93,291.99 83.25,291.97 C85.22,291.94 85.30,291.79 83.91,290.72 C81.58,288.92 79.81,285.23 80.95,284.53 C81.48,284.20 81.68,283.33 81.40,282.60 C81.12,281.86 81.59,280.99 82.44,280.66 C83.30,280.33 84.00,280.50 84.00,281.03 C84.00,281.56 85.12,282.00 86.50,282.00 C87.88,282.00 89.00,281.49 89.00,280.87 C89.00,280.12 90.38,279.92 93.02,280.28 C96.76,280.78 97.16,280.59 98.65,277.66 C99.53,275.92 100.40,274.33 100.59,274.12 C100.77,273.92 102.08,275.12 103.49,276.81 C104.90,278.49 109.00,281.51 112.60,283.52 C118.55,286.85 123.24,290.83 138.45,305.50 C141.30,308.25 145.86,312.07 148.57,313.99 C154.16,317.94 160.26,322.90 169.87,331.30 C176.85,337.40 182.98,341.28 187.40,342.39 C188.86,342.75 191.75,344.58 193.82,346.45 C195.89,348.33 198.84,350.17 200.38,350.56 C202.71,351.14 203.65,350.73 206.09,348.07 C209.62,344.20 209.64,343.66 206.49,338.15 C205.12,335.75 204.00,333.28 204.00,332.66 C204.00,332.03 202.35,329.04 200.33,326.01 C194.01,316.50 188.88,308.00 183.14,297.50 C181.03,293.64 181.73,294.21 184.17,297.76 C184.68,298.59 185.21,299.42 185.75,300.26 C187.81,303.43 191.96,309.95 194.98,314.76 C200.90,324.21 206.55,333.00 211.88,341.05 C216.88,348.69 220.99,354.73 224.54,359.64 C230.47,368.06 234.11,372.41 239.43,377.17 ZM 156.05 225.73 C155.28,224.50 154.13,221.72 153.48,219.55 C152.11,214.93 150.00,213.63 150.00,217.42 C150.00,220.94 155.20,230.18 156.47,228.92 C157.11,228.29 156.96,227.17 156.05,225.73 ZM 160.26 110.73 C160.18,109.75 160.49,109.19 160.95,109.47 C161.40,109.75 162.00,109.11 162.28,108.05 C162.64,106.66 163.37,106.28 164.90,106.68 C166.51,107.10 166.96,107.92 166.80,110.10 C166.60,112.65 166.23,112.94 163.48,112.73 C161.34,112.57 160.35,111.96 160.26,110.73 ZM 370.04 297.53 C369.76,296.67 369.45,295.98 369.11,295.52 C367.83,293.80 365.87,286.01 366.47,285.04 C366.99,284.21 364.32,280.42 360.36,275.77 C366.31,282.65 370.73,288.82 369.98,290.04 C369.28,291.16 369.19,292.25 370.04,297.53 ZM 198.30 141.00 C198.93,141.00 198.44,140.30 197.22,139.44 C196.00,138.59 194.57,138.15 194.04,138.47 C192.56,139.39 194.07,142.19 195.71,141.56 C196.51,141.25 197.68,141.00 198.30,141.00 ZM 201.00 134.00 C201.00,133.45 200.10,133.00 199.00,133.00 C197.90,133.00 197.00,133.45 197.00,134.00 C197.00,134.55 197.90,135.00 199.00,135.00 C200.10,135.00 201.00,134.55 201.00,134.00 ZM 165.00 371.11 C165.00,370.62 164.29,369.94 163.42,369.61 C160.97,368.67 160.65,368.87 162.00,370.50 C163.38,372.16 165.00,372.49 165.00,371.11 ZM 239.61 264.69 C249.59,254.56 261.86,246.87 274.61,243.48 C262.73,246.64 249.85,254.66 239.61,264.69 ZM 371.74 317.84 C371.83,313.82 371.73,309.81 371.45,306.29 C371.81,309.56 371.91,313.35 371.74,317.84 ZM 217.93 302.07 L 217.99 301.85 C218.94,298.09 220.23,294.37 221.81,290.74 C220.25,294.48 218.93,298.35 217.93,302.07 Z" fill="rgb(14,28,34)" data-index="9" style="opacity: 1;"></path>
<path d="M 324.72 613.53 L 316.34 613.58 C316.08,613.36 316.00,613.04 316.00,612.60 C316.00,611.66 316.75,609.46 317.66,607.70 C318.57,605.94 319.67,603.15 320.10,601.50 C320.53,599.85 322.07,595.35 323.53,591.50 C324.99,587.65 327.04,581.58 328.09,578.00 C329.13,574.42 332.03,564.75 334.54,556.50 C341.85,532.40 350.25,500.16 354.35,480.50 C362.14,443.13 365.27,423.22 369.60,383.50 C371.01,370.57 371.75,346.12 371.02,336.50 C370.92,335.25 371.03,331.20 371.27,326.55 C371.53,323.77 371.68,320.80 371.74,317.84 C371.91,313.35 371.81,309.56 371.45,306.29 C371.17,302.68 370.70,299.59 370.04,297.53 C369.19,292.25 369.28,291.16 369.98,290.04 C370.49,289.22 368.65,286.15 365.57,282.13 C377.22,296.46 389.77,314.41 400.13,332.00 C409.92,348.64 413.00,354.12 413.00,354.93 C413.00,355.37 414.80,359.00 417.00,363.00 C419.20,367.00 421.00,370.38 421.00,370.51 C421.00,370.64 422.65,374.29 424.68,378.63 C426.70,382.96 428.40,386.73 428.46,387.00 C428.70,388.12 432.31,397.70 433.55,400.50 C439.85,414.73 451.26,451.18 453.54,464.38 C454.32,468.85 455.38,474.30 455.91,476.50 C456.86,480.45 459.43,492.44 462.46,507.00 C463.32,511.12 464.02,515.54 464.01,516.82 C464.01,518.09 464.47,520.02 465.05,521.10 C465.64,522.20 466.11,522.54 468.30,521.32 C465.09,523.48 462.28,525.30 460.44,526.43 C452.95,531.04 429.46,546.74 402.00,565.51 C396.23,569.46 391.05,572.87 390.49,573.09 C389.94,573.32 385.44,576.33 380.49,579.78 C364.14,591.20 349.85,600.91 341.50,606.31 L 341.50 606.31 C332.90,611.65 329.11,612.99 324.72,613.53 ZM 492.21 504.73 C492.31,504.66 492.41,504.59 492.50,504.52 C496.35,501.71 501.30,498.36 503.50,497.06 C505.84,495.69 510.24,492.89 514.17,490.33 C510.29,492.87 505.82,495.74 502.78,497.60 C501.14,498.61 497.05,501.38 492.21,504.73 ZM 342.00 257.52 C344.83,259.70 348.03,262.63 351.48,266.16 C348.15,262.81 344.78,259.71 342.00,257.55 C332.52,250.18 320.86,245.13 308.76,242.74 C320.83,245.12 332.47,250.17 342.00,257.52 Z" fill="rgb(71,49,90)" data-index="10" style="opacity: 1;"></path>
<path d="M 217.93 302.07 C217.79,302.60 217.66,303.13 217.53,303.65 C215.94,309.79 215.36,310.69 214.25,309.58 C213.15,308.48 213.97,45.74 215.08,44.41 C215.57,43.82 218.38,41.79 222.11,39.24 C233.51,31.71 241.64,26.53 244.30,25.15 C249.30,22.56 249.88,22.49 270.95,22.19 C282.80,22.02 301.80,22.29 313.18,22.79 C319.45,23.06 323.85,23.27 327.11,23.51 L 293.50 23.53 C258.32,23.56 253.05,23.77 249.74,25.24 C245.45,27.14 244.30,29.16 245.71,32.31 C246.25,33.52 246.41,37.02 246.06,40.09 C245.66,43.68 245.87,46.73 246.67,48.59 C247.35,50.19 247.93,53.98 247.95,57.01 C247.98,60.04 248.45,64.08 249.00,66.00 C249.68,68.36 249.66,71.38 248.93,75.38 C248.34,78.61 247.94,86.72 248.03,93.38 C248.25,108.93 247.95,148.44 247.58,153.00 C247.43,154.93 247.01,157.18 246.66,158.00 C246.06,159.41 245.36,172.71 244.61,197.00 C244.43,202.77 243.73,209.52 243.06,212.00 C242.38,214.48 241.46,220.55 241.01,225.50 C240.31,233.21 238.20,241.58 233.18,256.50 C231.50,261.47 229.17,272.00 229.74,272.00 C230.04,272.00 233.75,268.68 238.00,264.62 C242.25,260.56 246.88,256.62 248.29,255.87 C249.64,255.15 253.15,253.19 256.24,251.45 C250.27,255.08 244.65,259.57 239.61,264.69 C234.31,269.88 229.71,275.61 226.34,281.48 C224.69,284.35 223.16,287.50 221.81,290.74 C220.23,294.37 218.94,298.09 217.99,301.85 L 217.93 302.07 ZM 498.04 500.62 C501.54,498.07 504.33,495.98 505.54,495.00 C507.91,493.08 512.47,489.82 515.67,487.76 C525.76,481.28 533.28,475.96 540.17,470.41 C546.08,465.65 547.05,464.38 548.59,459.27 C549.56,456.10 550.75,450.80 551.25,447.50 C551.86,443.41 552.69,383.09 553.18,320.56 C552.86,466.81 553.06,460.27 546.34,467.16 C544.38,469.17 538.21,473.89 532.63,477.64 C527.06,481.40 522.28,484.71 522.00,485.00 C521.68,485.35 518.26,487.65 514.17,490.33 C510.24,492.89 505.84,495.69 503.50,497.06 C502.30,497.77 500.27,499.10 498.04,500.62 ZM 465.69 519.31 C466.70,520.94 471.25,519.06 479.96,513.34 C476.06,516.07 471.92,518.90 468.30,521.32 C466.11,522.54 465.64,522.20 465.05,521.10 C464.47,520.02 464.01,518.09 464.01,516.82 C464.02,515.54 463.32,511.12 462.46,507.00 C459.43,492.44 456.86,480.45 455.91,476.50 C455.38,474.30 454.32,468.85 453.54,464.38 C451.26,451.18 439.85,414.73 433.55,400.50 C444.39,424.98 460.40,483.41 464.51,513.50 C464.89,516.25 465.42,518.86 465.69,519.31 ZM 553.46 193.96 C553.29,177.74 552.84,176.07 551.38,172.93 L 553.50 177.50 ZM 345.27 260.22 C347.92,262.47 350.50,264.94 353.04,267.63 C354.10,268.74 355.20,269.95 356.34,271.23 C354.78,269.54 353.13,267.82 351.48,266.16 C349.30,263.93 347.22,261.94 345.27,260.22 ZM 313.55 243.83 C313.60,243.84 313.65,243.86 313.70,243.87 C321.16,245.75 328.02,248.57 334.44,252.42 C327.99,248.62 320.89,245.73 313.55,243.83 ZM 401.39 334.15 C405.95,341.75 410.04,348.84 411.92,352.48 C410.42,349.63 407.22,344.07 401.39,334.15 ZM 382.10 304.08 C384.03,306.82 385.90,309.53 387.65,312.16 C388.01,312.70 388.37,313.25 388.75,313.83 C386.57,310.54 384.34,307.28 382.10,304.08 ZM 286.06 241.48 C287.99,241.30 289.95,241.20 291.93,241.18 C289.96,241.21 288.00,241.31 286.06,241.48 Z" fill="rgb(135,16,9)" data-index="11"></path>
<path d="M 465.69 519.31 C465.42,518.86 464.89,516.25 464.51,513.50 C460.40,483.41 444.39,424.98 433.55,400.50 C432.31,397.70 428.70,388.12 428.46,387.00 C428.40,386.73 426.70,382.96 424.68,378.63 C422.65,374.29 421.00,370.64 421.00,370.51 C421.00,370.38 419.20,367.00 417.00,363.00 C414.80,359.00 413.00,355.37 413.00,354.93 C413.00,353.31 396.42,325.34 387.65,312.16 C377.22,296.49 362.91,278.09 353.04,267.63 C338.52,252.24 322.38,244.09 301.75,241.72 C285.46,239.85 271.62,242.77 256.62,251.24 C253.44,253.03 249.69,255.12 248.29,255.87 C246.88,256.62 242.25,260.56 238.00,264.62 C233.75,268.68 230.04,272.00 229.74,272.00 C229.17,272.00 231.50,261.47 233.18,256.50 C238.20,241.58 240.31,233.21 241.01,225.50 C241.46,220.55 242.38,214.48 243.06,212.00 C243.73,209.52 244.43,202.77 244.61,197.00 C245.36,172.71 246.06,159.41 246.66,158.00 C247.01,157.18 247.43,154.93 247.58,153.00 C247.95,148.44 248.25,108.93 248.03,93.38 C247.94,86.72 248.34,78.61 248.93,75.38 C249.66,71.38 249.68,68.36 249.00,66.00 C248.45,64.08 247.98,60.04 247.95,57.01 C247.93,53.98 247.35,50.19 246.67,48.59 C245.87,46.73 245.66,43.68 246.06,40.09 C246.41,37.02 246.25,33.52 245.71,32.31 C244.30,29.16 245.45,27.14 249.74,25.24 C253.05,23.77 258.32,23.56 293.50,23.53 L 333.50 23.50 L 339.42 26.41 C344.68,28.99 368.66,44.70 394.50,62.50 C402.78,68.20 416.62,77.60 451.83,101.47 C459.16,106.43 467.58,112.07 470.53,114.00 C475.29,117.10 508.53,139.50 532.00,155.42 C544.94,164.19 549.07,167.93 551.38,172.93 C553.44,177.36 553.50,178.87 553.57,222.50 C553.70,297.36 552.21,441.10 551.25,447.50 C550.75,450.80 549.56,456.10 548.59,459.27 C547.05,464.38 546.08,465.65 540.17,470.41 C533.28,475.96 525.76,481.28 515.67,487.76 C512.47,489.82 507.91,493.08 505.54,495.00 C503.17,496.92 494.77,503.06 486.87,508.62 C473.60,517.97 466.94,521.33 465.69,519.31 Z" fill="rgb(205,26,13)" data-index="12" style="opacity: 1;"></path>
<path d="M 459.01 474.75 C458.57,471.82 458.49,471.54 457.79,470.43 C456.41,468.28 452.76,454.35 452.30,449.50 C451.95,445.90 451.16,443.92 449.48,442.44 C448.19,441.31 446.85,439.06 446.49,437.44 C445.59,433.29 436.19,406.46 433.55,400.50 C432.31,397.70 428.70,388.12 428.46,387.00 C428.40,386.73 426.70,382.96 424.68,378.63 C422.65,374.29 421.00,370.64 421.00,370.51 C421.00,370.38 419.20,367.00 417.00,363.00 C414.80,359.00 413.00,355.37 413.00,354.93 C413.00,353.31 396.42,325.34 387.65,312.16 C377.22,296.49 362.91,278.09 353.04,267.63 C338.52,252.24 322.38,244.09 301.75,241.72 C292.33,240.64 288.56,240.88 272.50,243.59 L 269.50 244.10 L 273.00 242.09 C274.92,240.99 277.11,240.06 277.85,240.04 C278.59,240.02 280.41,239.14 281.89,238.08 C284.84,235.98 308.78,224.87 318.75,220.98 C322.19,219.63 325.00,218.24 325.00,217.89 C325.00,217.54 324.24,216.63 323.31,215.87 C322.19,214.96 321.87,214.92 322.36,215.74 C322.85,216.56 322.62,216.79 321.68,216.43 C320.89,216.13 320.25,214.76 320.25,213.40 C320.25,212.03 319.99,210.66 319.68,210.34 C318.90,209.57 310.00,213.94 310.00,215.09 C310.00,215.59 309.10,216.00 308.00,216.00 C305.81,216.00 305.49,214.82 306.94,212.11 C308.13,209.89 305.39,207.27 302.15,207.51 C299.48,207.70 298.20,206.11 300.09,204.94 C300.83,204.48 301.13,203.80 300.76,203.42 C300.38,203.05 300.52,201.89 301.08,200.85 C301.80,199.50 301.76,199.05 300.92,199.24 C300.28,199.38 299.52,198.87 299.25,198.11 C298.93,197.26 299.18,196.99 299.88,197.42 C300.69,197.92 300.66,197.36 299.80,195.47 C298.72,193.10 298.51,193.01 297.87,194.66 C297.27,196.18 297.13,196.06 297.07,193.95 C296.99,190.88 295.29,188.95 293.33,189.70 C292.54,190.01 290.91,189.35 289.70,188.25 C288.41,187.07 286.55,186.40 285.21,186.62 C283.78,186.86 282.97,186.53 283.07,185.75 C283.42,183.07 282.94,182.00 281.38,182.00 C280.11,182.00 279.88,181.35 280.34,179.04 C281.02,175.66 278.50,172.10 276.71,173.89 C274.80,175.80 272.00,173.22 272.00,169.55 C272.00,166.35 270.36,165.30 268.41,167.26 C267.56,168.11 265.00,165.51 265.02,163.82 C265.03,162.84 265.29,162.89 266.01,164.00 C266.70,165.06 266.95,163.74 266.85,159.50 C266.69,152.49 267.65,145.13 268.92,143.59 C269.41,142.99 270.09,140.70 270.43,138.50 C270.77,136.30 271.67,131.80 272.42,128.50 C273.18,125.20 275.00,116.88 276.48,110.00 C277.96,103.12 279.82,95.25 280.60,92.50 C281.39,89.75 282.94,82.32 284.06,76.00 C285.17,69.68 286.52,62.25 287.05,59.50 C287.92,55.01 289.71,38.06 290.28,29.04 C290.48,25.88 290.87,25.48 295.00,24.24 C298.21,23.28 304.36,22.98 316.50,23.20 C332.95,23.49 333.69,23.59 339.42,26.41 C344.68,28.99 368.66,44.70 394.50,62.50 C402.78,68.20 416.62,77.60 451.83,101.47 C459.16,106.43 467.58,112.07 470.53,114.00 C475.29,117.10 508.53,139.50 532.00,155.42 C544.94,164.19 549.07,167.93 551.38,172.93 C553.43,177.35 553.51,178.98 553.68,223.00 C553.91,280.88 552.15,386.20 550.92,387.45 C550.42,387.97 550.00,389.61 550.00,391.09 C550.00,392.64 549.32,394.05 548.39,394.40 C546.61,395.09 547.02,398.24 549.56,403.39 C551.40,407.11 550.45,416.28 548.00,418.50 C545.63,420.64 541.95,418.93 539.62,414.59 C538.65,412.80 536.86,410.25 535.63,408.92 C534.41,407.59 529.22,401.33 524.11,395.00 C511.41,379.28 491.07,356.00 490.02,356.00 C489.55,356.00 488.34,355.70 487.33,355.34 C485.78,354.78 485.85,355.06 487.75,357.15 C490.61,360.30 490.79,363.39 488.08,362.52 C486.60,362.06 486.07,362.45 485.83,364.21 C485.57,365.98 484.87,366.49 482.75,366.46 C480.63,366.43 480.00,366.89 480.02,368.46 C480.03,370.14 480.20,370.24 481.00,369.00 C481.72,367.88 481.97,368.44 481.98,371.19 C481.99,373.22 481.55,375.16 481.00,375.50 C480.45,375.84 480.00,377.73 480.00,379.70 C480.00,381.94 479.35,383.75 478.27,384.55 C476.66,385.72 476.73,386.01 479.21,388.48 C481.52,390.79 482.11,394.11 480.16,393.85 C477.24,393.46 475.16,394.36 474.22,396.41 C473.25,398.55 473.40,398.88 475.56,399.43 C479.02,400.29 478.58,401.86 474.40,403.61 C470.97,405.04 470.87,405.20 472.47,406.97 C473.40,407.99 474.03,409.65 473.89,410.66 C473.74,411.67 473.97,413.55 474.40,414.84 C475.00,416.61 474.72,417.51 473.25,418.54 C471.84,419.52 471.36,420.90 471.52,423.49 C471.64,425.46 471.98,427.32 472.29,427.62 C472.59,427.92 471.89,429.11 470.73,430.27 C469.36,431.64 469.04,432.51 469.81,432.77 C470.47,432.99 471.00,434.10 471.00,435.25 C471.00,436.40 470.72,437.05 470.37,436.70 C469.38,435.71 466.00,437.90 466.00,439.54 C466.00,440.34 465.55,441.00 465.00,441.00 C464.45,441.00 464.00,441.92 464.00,443.04 C464.00,444.79 463.71,444.92 461.91,443.95 C459.36,442.58 457.80,443.75 460.31,445.16 C461.48,445.81 461.80,446.57 461.22,447.33 C460.35,448.46 462.18,453.49 463.12,452.55 C463.36,452.31 463.54,454.07 463.53,456.47 C463.51,458.87 463.16,461.17 462.75,461.58 C462.34,462.00 462.00,463.97 462.00,465.97 C462.00,467.96 461.59,470.03 461.08,470.55 C460.58,471.07 459.97,472.62 459.72,474.00 C459.43,475.64 459.18,475.90 459.01,474.75 ZM 479.00 362.44 C479.00,361.58 478.55,361.16 478.00,361.50 C477.45,361.84 477.00,362.54 477.00,363.06 C477.00,363.58 477.45,364.00 478.00,364.00 C478.55,364.00 479.00,363.30 479.00,362.44 ZM 484.00 359.11 C484.00,357.21 481.72,355.62 480.60,356.74 C479.16,358.17 480.09,361.00 482.00,361.00 C483.30,361.00 484.00,360.33 484.00,359.11 ZM 313.50 209.00 C313.84,208.45 313.42,208.00 312.56,208.00 C311.70,208.00 311.00,208.45 311.00,209.00 C311.00,209.55 311.42,210.00 311.94,210.00 C312.46,210.00 313.16,209.55 313.50,209.00 Z" fill="rgb(242,56,24)" data-index="13" style="opacity: 1;"></path>
<path d="M 423.43 375.76 C421.82,372.33 418.81,366.42 416.75,362.62 C414.69,358.83 413.00,355.37 413.00,354.93 C413.00,353.31 396.42,325.34 387.65,312.16 C377.22,296.49 362.91,278.09 353.04,267.63 C338.52,252.24 322.38,244.09 301.75,241.72 C292.33,240.64 288.56,240.88 272.50,243.59 L 269.50 244.10 L 273.00 242.09 C274.92,240.99 277.11,240.06 277.85,240.04 C278.59,240.02 280.42,239.13 281.92,238.06 C284.98,235.88 306.48,225.88 318.56,221.02 C350.98,207.99 392.07,194.62 415.50,189.49 C419.90,188.53 424.05,187.31 424.72,186.77 C426.08,185.70 429.06,184.93 443.00,182.07 C460.39,178.50 469.46,176.80 473.50,176.36 C475.70,176.11 479.00,175.44 480.83,174.85 C482.67,174.27 485.37,173.65 486.83,173.47 C488.30,173.29 490.62,172.90 492.00,172.58 C493.38,172.27 496.75,171.61 499.50,171.10 C508.22,169.51 522.36,166.94 526.42,166.21 C528.58,165.82 530.50,165.01 530.70,164.41 C530.90,163.81 528.73,160.91 525.88,157.97 C520.97,152.91 520.80,152.57 522.80,151.68 C524.82,150.77 526.37,151.57 537.29,159.12 C537.79,159.46 537.58,160.72 536.84,161.93 C535.67,163.84 535.73,164.30 537.35,165.49 C539.54,167.12 542.10,166.43 541.33,164.42 C540.43,162.08 542.71,162.81 546.40,166.05 C553.62,172.38 553.50,171.16 553.50,240.17 C553.50,274.08 553.13,302.21 552.67,302.67 C551.39,303.94 549.00,299.99 549.00,296.61 C549.00,294.37 548.71,293.89 547.87,294.73 C546.78,295.82 546.41,297.45 545.54,305.00 C544.71,312.15 543.46,315.48 541.46,315.84 C538.53,316.37 537.58,317.68 537.45,321.33 C537.39,323.14 536.58,326.13 535.67,327.96 C534.75,329.80 534.00,331.84 534.00,332.50 C534.00,333.15 533.10,334.50 532.00,335.50 C530.90,336.50 530.00,338.04 530.00,338.93 C530.00,339.83 529.05,341.37 527.89,342.36 C526.34,343.69 525.93,344.90 526.34,346.93 C526.73,348.88 526.17,350.76 524.44,353.30 C523.10,355.27 522.00,357.54 522.00,358.32 C522.00,359.11 521.33,360.32 520.50,361.00 C519.67,361.68 519.00,362.73 519.00,363.32 C519.00,365.55 513.66,372.00 511.81,372.00 C508.83,372.00 503.95,369.10 501.12,365.65 C497.80,361.60 472.88,336.61 462.50,326.93 C453.77,318.79 445.25,312.34 443.78,312.77 C443.27,312.93 443.14,312.59 443.48,312.02 C443.83,311.46 443.63,311.00 443.04,311.00 C442.44,311.00 439.98,309.18 437.57,306.96 C435.16,304.74 432.32,302.75 431.25,302.55 C430.19,302.34 426.73,300.52 423.57,298.50 C420.42,296.48 417.55,295.11 417.21,295.46 C416.87,295.80 417.29,297.52 418.15,299.29 C421.98,307.18 422.83,309.77 421.87,310.73 C420.73,311.87 421.78,317.00 423.15,317.00 C423.67,317.00 422.98,318.11 421.63,319.46 C420.08,321.01 419.36,322.64 419.67,323.86 C419.95,324.92 419.67,326.74 419.05,327.90 C418.24,329.42 418.23,330.00 419.04,330.00 C420.74,330.00 423.21,332.87 422.72,334.26 C422.47,334.94 422.69,336.32 423.20,337.31 C423.79,338.46 423.78,339.57 423.16,340.31 C422.62,340.97 422.17,342.62 422.17,344.00 C422.16,345.38 421.84,347.77 421.45,349.32 C421.04,350.93 421.22,353.08 421.87,354.32 C423.26,357.01 423.83,360.20 423.93,365.86 C423.98,369.26 424.32,370.09 425.47,369.65 C427.36,368.92 428.48,370.72 427.13,372.34 C426.56,373.03 426.27,375.48 426.48,377.79 C426.69,380.11 426.75,382.00 426.62,382.00 C426.48,382.00 425.05,379.19 423.43,375.76 ZM 519.33 149.26 C519.33,147.64 522.17,148.00 522.73,149.69 C522.95,150.36 522.30,150.82 521.23,150.74 C520.19,150.66 519.33,150.00 519.33,149.26 Z" fill="rgb(243,97,21)" data-index="14" style="opacity: 1;"></path>
<path d="M 464.55 322.27 C461.43,321.48 448.26,313.25 438.50,305.99 C413.09,287.10 389.90,273.52 360.48,260.31 C349.49,255.38 331.87,248.96 330.92,249.55 C330.45,249.84 328.66,249.36 326.95,248.47 C318.15,243.92 302.67,240.77 290.50,241.05 C281.11,241.27 276.17,240.96 278.00,240.28 C278.83,239.97 280.66,238.91 282.07,237.92 C285.05,235.83 306.97,225.69 318.56,221.02 C363.02,203.15 403.54,191.14 451.74,181.55 C461.36,179.63 483.38,177.05 490.30,177.02 C497.20,176.99 503.28,180.47 499.94,182.54 C498.10,183.67 496.78,188.25 498.06,189.04 C499.47,189.91 496.26,194.00 494.16,194.00 C493.26,194.00 492.95,194.71 493.29,196.00 C493.58,197.10 493.45,197.78 493.00,197.50 C491.74,196.72 490.19,202.28 491.04,204.57 C491.93,206.98 491.56,215.29 490.48,217.03 C490.08,217.69 490.31,218.57 491.00,219.00 C491.89,219.55 492.06,221.13 491.57,224.35 C491.16,227.12 491.32,229.74 491.99,230.99 C492.89,232.66 492.71,233.56 491.05,235.66 C489.92,237.10 489.00,239.09 489.00,240.08 C489.00,241.08 487.88,243.11 486.50,244.59 C483.82,247.48 483.34,249.00 485.08,249.00 C485.68,249.00 485.97,249.56 485.73,250.25 C485.49,250.94 484.55,251.37 483.65,251.21 C482.74,251.04 482.00,251.38 482.00,251.96 C482.00,252.53 482.70,253.00 483.56,253.00 C484.80,253.00 485.00,253.77 484.54,256.75 C483.75,261.83 482.01,267.00 481.09,267.00 C480.40,267.00 480.17,269.11 479.95,277.30 C479.90,278.84 478.80,281.69 477.48,283.62 C475.67,286.30 475.31,287.68 475.97,289.43 C476.50,290.81 476.44,293.30 475.84,295.62 C474.23,301.81 472.86,309.19 472.56,313.28 C472.40,315.36 471.99,317.34 471.64,317.69 C471.29,318.05 470.99,319.50 470.98,320.92 C470.97,323.02 470.77,323.22 469.91,322.00 C469.11,320.87 468.72,320.81 468.34,321.75 C467.81,323.06 467.70,323.07 464.55,322.27 Z" fill="rgb(250,152,20)" data-index="15" style="opacity: 1;"></path>
</g>
</svg>